<?xml version="1.0" encoding="UTF-8"?>
<svg width="700pt" height="700pt" version="1.1" viewBox="0 0 700 700" xmlns="http://www.w3.org/2000/svg">
 <g>
  <path d="m603.44 285.27c8.5859 0 15.566-6.9609 15.566-15.566 0-8.5859-6.9609-15.566-15.566-15.566-0.24219 0-0.44922 0.12891-0.71094 0.14844l-0.31641-3.3398c7.4844-1.1211 13.348-7.2969 13.348-15.121 0-8.5859-6.9609-15.566-15.566-15.566-1.3086 0-2.4648 0.44922-3.6758 0.74609l-1.1016-3.6406c6.0117-2.1641 10.359-7.7656 10.359-14.504 0-0.16797-0.09375-0.29688-0.09375-0.44922 0-0.16797 0.09375-0.29688 0.09375-0.44922 0-8.5859-6.9609-15.566-15.566-15.566-2.0547 0-4.0117 0.44922-5.8047 1.1758l-0.98828-2.2578c5.6562-2.332 9.6328-7.8789 9.6328-14.355 0-8.5859-6.9609-15.566-15.566-15.566-0.20703 0-0.375 0.11328-0.57812 0.11328-0.20703 0-0.375-0.11328-0.57812-0.11328-3.2656 0-6.1211 1.2305-8.6055 2.9492l-2.5391-3.3398c3.5469-2.8555 5.9531-7.0391 5.9531-11.945 0-8.5859-6.9609-15.566-15.566-15.566-3.7891 0-7.1484 1.5117-9.8359 3.7695l-2.2695-2.4531c3.4141-2.8555 5.7109-6.9805 5.7109-11.777 0-8.5859-6.9609-15.566-15.566-15.566-4.3867 0-8.3086 1.8477-11.145 4.7617l-2.8008-2.9297c2.6523-2.7812 4.332-6.5156 4.332-10.676 0-8.5859-6.9609-15.566-15.566-15.566-5.0977 0-9.4062 2.6133-12.246 6.4023l-3.3047-2.2227c1.418-2.3516 2.4453-4.9453 2.4453-7.8789 0-8.5859-6.9609-15.566-15.566-15.566-5.582 0-10.246 3.0977-12.992 7.5039l-2.8555-1.5859c1.0078-2.0703 1.6992-4.3125 1.6992-6.7578 0-8.5859-6.9609-15.566-15.566-15.566-6.0117 0-11.051 3.5078-13.645 8.4922l-3.2305-1.4766c0.82031-1.9023 1.3086-3.9766 1.3086-6.1992 0-8.5859-6.9609-15.566-15.566-15.566-0.22266 0-0.39062 0.11328-0.61719 0.12891-0.22266 0-0.39062-0.12891-0.61719-0.12891-6.7773 0-12.395 4.3867-14.523 10.453l-2.9922-0.86328c0.35547-1.2891 0.80078-2.5586 0.80078-3.957 0-8.5859-6.9609-15.566-15.566-15.566-0.24219 0-0.42969 0.12891-0.67188 0.12891-0.24219-0.019531-0.42969-0.12891-0.67188-0.12891-7.4297 0-13.367 5.3203-14.895 12.301l-3.5859-0.59766c0.074219-0.59766 0.35547-1.1211 0.35547-1.7344 0-8.5859-6.9609-15.566-15.566-15.566-8.5859 0-15.566 6.9609-15.566 15.566v0.019532l-5.6367 0.28125c-0.82031-7.8203-7.207-14-15.25-14-8.5859 0-15.566 6.9609-15.566 15.566 0 0.71094 0.31641 1.3086 0.39062 1.9805l-3.3398 0.61719c-1.625-6.8516-7.5039-12.059-14.859-12.059-4.6289 0-8.6797 2.1094-11.516 5.3203-3.0039 2.8359-4.9453 6.793-4.9453 11.273 0 2.3164 0.57812 4.4805 1.4922 6.457l-3.9961 2.2227c-2.3164-5.6914-7.8594-9.707-14.375-9.707-8.5859 0-15.566 6.9609-15.566 15.566 0 3.4531 1.3438 6.4961 3.2461 9.0703l-4.3516 2.4414c-2.8555-3.6758-7.0938-6.1992-12.113-6.1992-8.5859 0-15.566 6.9609-15.566 15.566 0 4.1445 1.6797 7.8594 4.3125 10.66l-1.6094 1.5703c-2.7812-2.6133-6.4766-4.293-10.602-4.293-8.5859 0-15.566 6.9609-15.566 15.566 0 5.3945 2.9102 9.9297 7.0938 12.711l-1.2188 2.0195c-2.6875-2.2578-6.0469-3.7891-9.8359-3.7891-8.5859 0-15.566 6.9609-15.566 15.566 0 6.5352 4.0508 12.098 9.7617 14.391l-1.3242 2.2617c-1.6797-0.63281-3.4727-1.082-5.375-1.082-8.5859 0-15.566 6.9609-15.566 15.566 0 6.2891 3.7695 11.629 9.1289 14.074l-0.99219 3.1914c-1.457-0.44531-2.9336-0.91406-4.5391-0.91406-8.5859 0-15.566 6.9609-15.566 15.566 0 6.9609 4.6484 12.637 10.938 14.633l-0.78516 2.5c-1.25-0.31641-2.4648-0.76562-3.8086-0.76562-8.5859 0-15.566 6.9609-15.566 15.566 0 7.4492 5.3398 13.367 12.32 14.914l-0.59766 3.6211c-0.59766-0.074219-1.1211-0.35547-1.7539-0.35547-8.5859 0-15.566 6.9609-15.566 15.566 0 7.7266 5.7305 13.852 13.105 15.062l-0.35547 3.9023c-0.46484-0.039062-0.85938-0.28125-1.3438-0.28125-8.5859 0-15.566 6.9609-15.566 15.566 0 8.1953 6.3828 14.727 14.43 15.324l-0.33594 6.4219c-8.3242 0.31641-14.988 7.0547-14.988 15.457 0 8.5859 6.9609 15.566 15.566 15.566 8.5859 0 15.566-6.9609 15.566-15.566 0-8.25-6.457-14.82-14.578-15.363l0.33594-6.3672c8.3984-0.24219 15.137-7.0391 15.137-15.477 0-7.5781-5.5078-13.59-12.676-14.988l0.35547-3.9023c0.31641 0.019531 0.59766 0.1875 0.93359 0.1875 8.5859 0 15.566-6.9609 15.566-15.566 0-7.4297-5.3203-13.367-12.301-14.895l0.59766-3.6211c0.59766 0.074219 1.1016 0.35547 1.7188 0.35547 8.5859 0 15.566-6.9609 15.566-15.566 0-6.7031-4.2734-12.281-10.23-14.484l0.78516-2.5c1.0273 0.22266 1.9961 0.61719 3.0977 0.61719 8.5859 0 15.566-6.9609 15.566-15.566 0-6.4414-3.9219-11.984-9.5-14.336l0.95312-3.0234c1.5859 0.54297 3.2109 1.0078 4.9648 1.0078 8.5859 0 15.566-6.9609 15.566-15.566 0-6.1211-3.6211-11.293-8.7539-13.832l1.5312-2.5742c1.3633 0.39062 2.707 0.83984 4.1797 0.83984 8.5859 0 15.566-6.9609 15.566-15.566 0-4.2383-1.7188-8.0625-4.4805-10.883l1.2305-2.0703c2.1523 1.1758 4.5234 1.9961 7.1562 1.9961 8.5859 0 15.566-6.9609 15.566-15.566 0-3.9023-1.5664-7.3555-3.9375-10.098l1.8281-1.7539c2.7266 2.3516 6.1602 3.9219 10.043 3.9219 8.5859 0 15.566-6.9609 15.566-15.566 0-3.0234-1.082-5.6758-2.5742-8.0625l4.4062-2.4648c2.8555 3.1367 6.8516 5.1875 11.426 5.1875 8.5859 0 15.566-6.9609 15.566-15.566 0-1.5117-0.44922-2.875-0.85938-4.2383l4.5352-2.5391c2.707 4.5938 7.4844 7.8203 13.199 7.8203 4.6289 0 8.6797-2.1094 11.516-5.3398 3.0039-2.8359 4.9453-6.793 4.9453-11.258 0-0.71094-0.31641-1.3086-0.41016-1.9805l3.3398-0.61719c1.625 6.8516 7.5039 12.059 14.859 12.059 8.5859 0 15.566-6.9609 15.566-15.566v-0.019531l5.6367-0.28125c0.82031 7.8203 7.207 14 15.25 14 7.4492 0 13.367-5.3203 14.895-12.301l3.5859 0.59766c-0.074219 0.59766-0.35547 1.1211-0.35547 1.7344 0 8.5859 6.9609 15.566 15.566 15.566 0.24219 0 0.42969-0.12891 0.67188-0.12891 0.24219 0.019531 0.42969 0.12891 0.67188 0.12891 6.6445 0 12.227-4.1992 14.449-10.078l3.0625 0.89453c-0.28125 1.1758-0.72656 2.3164-0.72656 3.5859 0 8.5859 6.9609 15.566 15.566 15.566 0.22266 0 0.39062-0.11328 0.61719-0.12891 0.22266 0 0.39062 0.12891 0.61719 0.12891 5.8242 0 10.695-3.3398 13.367-8.0625l3.3398 1.5312c-0.71094 1.7734-1.1562 3.6758-1.1562 5.7109 0 8.5859 6.9609 15.566 15.566 15.566 5.582 0 10.246-3.0977 12.992-7.5039l2.8555 1.5859c-1.0078 2.0703-1.6992 4.3125-1.6992 6.7578 0 8.5859 6.9609 15.566 15.566 15.566 5.0977 0 9.4062-2.6133 12.246-6.4023l3.3047 2.2227c-1.418 2.3516-2.4453 4.9297-2.4453 7.8789 0 8.5859 6.9609 15.566 15.566 15.566 3.8633 0 7.2969-1.5508 10.023-3.9023l3.0977 3.2656c-2.0898 2.6523-3.5273 5.8438-3.5273 9.4844 0 8.5859 6.9609 15.566 15.566 15.566 3.2305 0 6.0664-1.2148 8.5508-2.8945l2.2969 2.5195c-2.7422 2.8008-4.4609 6.625-4.4609 10.863 0 8.5859 6.9609 15.566 15.566 15.566 3.1367 0 5.8789-1.1562 8.3242-2.7617l2.5391 3.3398c-3.3984 2.8555-5.6562 6.9609-5.6562 11.742 0 8.5859 6.9609 15.566 15.566 15.566 0.20703 0 0.375-0.11328 0.57812-0.11328 0.20703 0 0.375 0.11328 0.57813 0.11328 1.5508 0 2.9492-0.46484 4.3672-0.87891l1.1953 2.7422c-4.9297 2.6133-8.3984 7.6328-8.3984 13.59 0 0.16797 0.09375 0.29688 0.09375 0.44922 0 0.16797-0.09375 0.29688-0.09375 0.44922 0 8.5859 6.9609 15.566 15.566 15.566 1.3086 0 2.4648-0.44922 3.6758-0.74609l1.1016 3.6406c-6.0117 2.1641-10.359 7.7656-10.359 14.504 0 8.5859 6.9609 15.566 15.566 15.566 0.24219 0 0.44922-0.12891 0.69141-0.14844l0.31641 3.3398c-7.4844 1.1211-13.328 7.2969-13.328 15.102 0 7.543 5.4688 13.535 12.602 14.969l-0.80078 5.5625c-0.67188-0.09375-1.25-0.39062-1.9609-0.39062-8.5859 0-15.566 6.9609-15.566 15.566 0 5.8633 3.3594 10.77 8.1367 13.422l-2.0703 3.0781c-2.5742-1.9023-5.6172-3.2461-9.0703-3.2461-8.5859 0-15.566 6.9609-15.566 15.566 0 4.0312 1.625 7.6328 4.1641 10.398l-5.1133 3.9219c-2.8203-3.9375-7.207-6.6641-12.434-6.6641-8.5859 0-15.566 6.9609-15.566 15.566 0 4.1445 1.6797 7.8789 4.332 10.66l-3.9023 3.4922c-2.8555-3.4922-7.0195-5.8438-11.871-5.8438-8.5859 0-15.566 6.9609-15.566 15.566 0 3.3242 1.2695 6.2344 3.043 8.7734l-5.5625 3.0234c-2.7422-4.4609-7.4297-7.5977-13.047-7.5977-8.5859 0-15.566 6.9609-15.566 15.566 0 1.9023 0.44922 3.6758 1.082 5.3555l-5.5234 2.3711c-2.7266-4.5352-7.4648-7.7266-13.141-7.7266-8.5859 0-15.566 6.9609-15.566 15.566 0 0.65234 0.29688 1.1953 0.375 1.8281l-5.3398 1.1758c-2.0352-6.2148-7.6914-10.789-14.598-10.789-8.3242 0-14.969 6.5703-15.398 14.785h-5.0039c-0.42969-8.2148-7.0742-14.785-15.398-14.785-7.4492 0-13.383 5.3398-14.914 12.34l-3.9961-0.80078c0.31641-1.2305 0.74609-2.4062 0.74609-3.7539 0-8.5859-6.9609-15.566-15.566-15.566-7.6328 0-13.703 5.6172-15.027 12.879l-5.4883-1.457c0.65234-1.7188 1.1016-3.5273 1.1016-5.4688 0-8.5859-6.9609-15.566-15.566-15.566-7.5586 0-13.551 5.4883-14.969 12.617l-4.3477-1.5859c0.69141-1.7539 1.1367-3.6211 1.1367-5.6172 0-8.5859-6.9609-15.566-15.566-15.566-7.1875 0-12.973 4.9648-14.766 11.594l-4.3672-0.78516c0.28125-1.1758 0.72656-2.2969 0.72656-3.5664 0-8.5859-6.9609-15.566-15.566-15.566-7.6523 0-13.719 5.6172-15.027 12.898l-5.3555-1.8125c0.54297-1.5859 1.0078-3.2109 1.0078-4.9844 0-8.5859-6.9609-15.566-15.566-15.566-7.6172 0-13.664 5.582-15.008 12.824l-6.9805-0.59766c0.16797-0.93359 0.55859-1.793 0.55859-2.7617 0-8.5859-6.9609-15.566-15.566-15.566-8.5859 0-15.566 6.9609-15.566 15.566 0 8.5859 6.9609 15.566 15.566 15.566 7.0742 0 12.805-4.8164 14.691-11.273l6.9805 0.59766c-0.039063 0.42969-0.24219 0.78516-0.24219 1.2148 0 8.5859 6.9609 15.566 15.566 15.566 6.2734 0 11.609-3.7539 14.074-9.1094l5.543 1.8672c-0.039063 0.39062-0.22266 0.72656-0.22266 1.1367 0 8.5859 6.9609 15.566 15.566 15.566 6.793 0 12.414-4.4062 14.543-10.473l4.3672 0.78516c-0.12891 0.83984-0.50391 1.5859-0.50391 2.4648 0 8.5859 6.9609 15.566 15.566 15.566 6.0312 0 11.105-3.5273 13.703-8.5508l4.7773 1.7344c-0.039062 0.48437-0.28125 0.89453-0.28125 1.3984 0 8.5859 6.9609 15.566 15.566 15.566 6.0859 0 11.199-3.5859 13.777-8.6602l5.8633 1.5508c-0.039062 0.41016-0.22266 0.74609-0.22266 1.1562 0 8.5859 6.9609 15.566 15.566 15.566 6.7188 0 12.32-4.3125 14.504-10.305l3.9961 0.80078c-0.074219 0.57812-0.33594 1.1016-0.33594 1.6992 0 8.5859 6.9609 15.566 15.566 15.566 8.3242 0 14.969-6.5703 15.398-14.785h5.0039c0.42969 8.2148 7.0938 14.785 15.398 14.785 8.5859 0 15.566-6.9609 15.566-15.566 0-1.1562-0.41016-2.1641-0.65234-3.2461l5.3398-1.1758c1.5664 6.9258 7.4844 12.207 14.879 12.207 8.5859 0 15.566-6.9609 15.566-15.566 0-2.3516-0.59766-4.5352-1.5508-6.5352l5.2656-2.2578c2.5391 5.1523 7.7266 8.793 13.852 8.793 8.5859 0 15.566-6.9609 15.566-15.566 0-2.4062-0.65234-4.6289-1.6445-6.6836l5.5625-3.0234c2.8555 3.3047 6.9258 5.5078 11.629 5.5078 8.5859 0 15.566-6.9609 15.566-15.566 0-3.1719-1.1758-5.9531-2.8203-8.418l4.2188-3.7891c2.7266 2.332 6.1602 3.9023 10.023 3.9023 8.5859 0 15.566-6.9609 15.566-15.566 0-2.8203-0.95312-5.3203-2.2578-7.5977l5.375-4.125c2.7422 2.4648 6.2891 4.0703 10.266 4.0703 8.5859 0 15.566-6.9609 15.566-15.566 0-4.5742-2.0547-8.6055-5.207-11.441l2.0703-3.0781c1.8867 0.80078 3.957 1.2695 6.1406 1.2695 8.5859 0 15.566-6.9609 15.566-15.566 0-7.3555-5.207-13.234-12.078-14.859l0.80078-5.5625c0.43359 0.007812 0.86328 0.25391 1.3672 0.25391z"/>
  <path d="m141.96 378.04c-1.3086-2.8008-2.0703-4.9297-2.4648-6.3281-0.26172-0.89453-0.46484-1.6602-0.82031-2.4062-5.5625-11.91-5.375-32.273-5.375-32.48l-1.5508-0.019531c-0.019531 0.83984-0.1875 20.926 5.5234 33.152 0.29687 0.63281 0.48437 1.3086 0.72656 2.1641 0.39062 1.3633 1.1367 3.3984 2.2773 5.9727"/>
  <path d="m147.04 380.8 1.2148 0.98828c5.9141-7.2422 15.824-6.5898 15.918-6.5898l0.11328-1.5508c-0.42969-0.035157-10.809-0.72656-17.246 7.1523z"/>
  <path d="m158.22 391.21c0.31641-1.5117-0.65234-3.0234-2.1641-3.3398l-1.8125-0.39062c-0.83984-4.3125-4.1641-7.9336-8.6992-8.9023l-1.1016-0.24219c-4.5352-0.96875-9.0703 0.98828-11.574 4.5742l-1.8281-0.35937c-1.5117-0.31641-3.0234 0.65234-3.3398 2.1641-0.31641 1.5117 0.65234 3.0234 2.1641 3.3398l0.78516 0.16797c-8.6992 5.0781-8.0625 12.543-5.4492 15.812 14.633 18.367-43.961 137.7-43.961 137.7h0.019531l31.922-50.699-13.254 52.305 23.406-51.5-4.9844 54.488 13.254-54.004 5.2266 56.652 1.457-57.27 17.078 60.461 0.31641 0.039063s-27.367-123.16-3.0234-142.33c3.2852-2.5938 7.3359-8.4922 1.457-16.668l0.78516 0.16797c1.4922 0.31641 3.0039-0.65625 3.3203-2.168z"/>
 </g>
</svg>
