<?xml version="1.0" encoding="UTF-8"?>
<svg width="700pt" height="700pt" version="1.1" viewBox="0 0 700 700" xmlns="http://www.w3.org/2000/svg" xmlns:xlink="http://www.w3.org/1999/xlink">
 <defs>
  <symbol id="v" overflow="visible">
   <path d="m3.7188-0.21875c-0.1875 0.09375-0.38672 0.16797-0.59375 0.21875-0.21094 0.050781-0.42969 0.078125-0.65625 0.078125-0.66797 0-1.1992-0.1875-1.5938-0.5625-0.39844-0.375-0.59375-0.89062-0.59375-1.5469 0-0.64453 0.19531-1.1562 0.59375-1.5312 0.39453-0.375 0.92578-0.5625 1.5938-0.5625 0.22656 0 0.44531 0.027344 0.65625 0.078125 0.20703 0.054687 0.40625 0.125 0.59375 0.21875v0.84375c-0.1875-0.13281-0.375-0.23438-0.5625-0.29688s-0.38672-0.09375-0.59375-0.09375c-0.375 0-0.67188 0.12109-0.89062 0.35938-0.21094 0.24219-0.3125 0.57031-0.3125 0.98438 0 0.42969 0.10156 0.76172 0.3125 1 0.21875 0.24219 0.51562 0.35938 0.89062 0.35938 0.20703 0 0.40625-0.03125 0.59375-0.09375s0.375-0.16016 0.5625-0.29688z"/>
  </symbol>
  <symbol id="d" overflow="visible">
   <path d="m2.7344-2.2188c-0.09375-0.03125-0.18359-0.054688-0.26562-0.078125-0.085938-0.019531-0.16797-0.03125-0.25-0.03125-0.25 0-0.44531 0.085937-0.57812 0.25-0.13672 0.15625-0.20312 0.38281-0.20312 0.67188v1.4062h-0.96875v-3.0469h0.96875v0.5c0.125-0.19531 0.26562-0.33594 0.42188-0.42188 0.16406-0.09375 0.36328-0.14062 0.59375-0.14062h0.09375c0.039063 0 0.097656 0.007813 0.17188 0.015625z"/>
  </symbol>
  <symbol id="b" overflow="visible">
   <path d="m3.5-1.5312v0.28125h-2.2656c0.019531 0.23047 0.097656 0.40234 0.23438 0.51562 0.14453 0.11719 0.34375 0.17188 0.59375 0.17188 0.20703 0 0.41406-0.03125 0.625-0.09375 0.21875-0.0625 0.44141-0.15625 0.67188-0.28125v0.75c-0.23047 0.09375-0.46094 0.16406-0.6875 0.20312-0.23047 0.039062-0.46094 0.0625-0.6875 0.0625-0.55469 0-0.98438-0.14062-1.2969-0.42188-0.30469-0.28125-0.45312-0.67188-0.45312-1.1719s0.14844-0.89062 0.45312-1.1719c0.30078-0.28125 0.71094-0.42188 1.2344-0.42188 0.47656 0 0.85938 0.14844 1.1406 0.4375 0.28906 0.28125 0.4375 0.66406 0.4375 1.1406zm-1-0.32812c0-0.17578-0.054688-0.32031-0.15625-0.4375-0.10547-0.11328-0.24609-0.17188-0.42188-0.17188-0.1875 0-0.34375 0.054688-0.46875 0.15625-0.11719 0.10547-0.1875 0.25781-0.21875 0.45312z"/>
  </symbol>
  <symbol id="l" overflow="visible">
   <path d="m1.8281-1.375c-0.19922 0-0.35156 0.039062-0.45312 0.10938-0.10547 0.074219-0.15625 0.17188-0.15625 0.29688s0.039062 0.22656 0.125 0.29688c0.082031 0.074219 0.19531 0.10938 0.34375 0.10938 0.1875 0 0.33594-0.066406 0.45312-0.20312 0.125-0.13281 0.1875-0.29688 0.1875-0.48438v-0.125zm1.4844-0.35938v1.7344h-0.98438v-0.45312c-0.125 0.1875-0.27344 0.32422-0.4375 0.40625-0.15625 0.082031-0.35547 0.125-0.59375 0.125-0.3125 0-0.57031-0.085938-0.76562-0.26562-0.19922-0.1875-0.29688-0.42578-0.29688-0.71875 0-0.36328 0.11719-0.62891 0.35938-0.79688 0.25-0.16406 0.64062-0.25 1.1719-0.25h0.5625v-0.078125c0-0.14453-0.0625-0.25391-0.1875-0.32812-0.11719-0.070313-0.29688-0.10938-0.54688-0.10938-0.21094 0-0.40625 0.023438-0.59375 0.0625-0.17969 0.042969-0.34375 0.10547-0.5 0.1875v-0.73438c0.20703-0.050781 0.41406-0.085937 0.625-0.10938 0.21875-0.03125 0.42969-0.046875 0.64062-0.046875 0.53906 0 0.92969 0.10938 1.1719 0.32812 0.25 0.21094 0.375 0.55859 0.375 1.0469z"/>
  </symbol>
  <symbol id="a" overflow="visible">
   <path d="m1.5312-3.9062v0.85938h1v0.70312h-1v1.2812c0 0.14844 0.023438 0.24609 0.078125 0.29688 0.0625 0.042969 0.17578 0.0625 0.34375 0.0625h0.5v0.70312h-0.84375c-0.38672 0-0.65625-0.078125-0.8125-0.23438-0.15625-0.16406-0.23438-0.44141-0.23438-0.82812v-1.2812h-0.48438v-0.70312h0.48438v-0.85938z"/>
  </symbol>
  <symbol id="f" overflow="visible">
   <path d="m2.5312-2.5938v-1.625h0.98438v4.2188h-0.98438v-0.4375c-0.13672 0.17969-0.28125 0.30859-0.4375 0.39062-0.15625 0.082031-0.34375 0.125-0.5625 0.125-0.375 0-0.68359-0.14453-0.92188-0.4375-0.24219-0.30078-0.35938-0.6875-0.35938-1.1562s0.11719-0.84766 0.35938-1.1406c0.23828-0.30078 0.54688-0.45312 0.92188-0.45312 0.20703 0 0.39062 0.042969 0.54688 0.125 0.16406 0.085937 0.31641 0.21484 0.45312 0.39062zm-0.64062 1.9688c0.20703 0 0.36328-0.070312 0.46875-0.21875 0.11328-0.15625 0.17188-0.37891 0.17188-0.67188 0-0.28906-0.058594-0.50781-0.17188-0.65625-0.10547-0.15625-0.26172-0.23438-0.46875-0.23438-0.19922 0-0.35547 0.078125-0.46875 0.23438-0.11719 0.14844-0.17188 0.36719-0.17188 0.65625 0 0.29297 0.054688 0.51562 0.17188 0.67188 0.11328 0.14844 0.26953 0.21875 0.46875 0.21875z"/>
  </symbol>
  <symbol id="k" overflow="visible">
   <path d="m2.0938-0.625c0.19531 0 0.35156-0.070312 0.46875-0.21875 0.11328-0.15625 0.17188-0.37891 0.17188-0.67188 0-0.28906-0.058594-0.50781-0.17188-0.65625-0.11719-0.15625-0.27344-0.23438-0.46875-0.23438-0.21094 0-0.37109 0.078125-0.48438 0.23438-0.11719 0.14844-0.17188 0.36719-0.17188 0.65625 0 0.28125 0.054688 0.5 0.17188 0.65625 0.11328 0.15625 0.27344 0.23438 0.48438 0.23438zm-0.65625-1.9688c0.13281-0.17578 0.28125-0.30469 0.4375-0.39062 0.16406-0.082031 0.35938-0.125 0.57812-0.125 0.375 0 0.67969 0.15234 0.92188 0.45312 0.23828 0.29297 0.35938 0.67188 0.35938 1.1406s-0.12109 0.85547-0.35938 1.1562c-0.24219 0.29297-0.54688 0.4375-0.92188 0.4375-0.21875 0-0.41406-0.042969-0.57812-0.125-0.15625-0.082031-0.30469-0.21094-0.4375-0.39062v0.4375h-0.96875v-4.2188h0.96875z"/>
  </symbol>
  <symbol id="e" overflow="visible">
   <path d="m0.0625-3.0469h0.98438l0.8125 2.0625 0.6875-2.0625h0.98438l-1.2812 3.3281c-0.13672 0.34375-0.28906 0.58203-0.45312 0.71875-0.16797 0.13281-0.39062 0.20312-0.67188 0.20312h-0.5625v-0.64062h0.29688c0.16406 0 0.28516-0.027344 0.35938-0.078125 0.070312-0.054687 0.12891-0.14844 0.17188-0.28125l0.03125-0.09375z"/>
  </symbol>
  <symbol id="j" overflow="visible">
   <path d="m2.9688-0.73438h-1.625l-0.26562 0.73438h-1.0469l1.5-4.0625h1.25l1.5 4.0625h-1.0469zm-1.375-0.75h1.1094l-0.54688-1.625z"/>
  </symbol>
  <symbol id="i" overflow="visible">
   <path d="m3.2812-2.5312c0.125-0.1875 0.26953-0.32812 0.4375-0.42188 0.17578-0.10156 0.36328-0.15625 0.5625-0.15625 0.35156 0 0.61719 0.10938 0.79688 0.32812 0.1875 0.21094 0.28125 0.51562 0.28125 0.92188v1.8594h-0.98438v-1.5938-0.0625c0.007812-0.03125 0.015625-0.066406 0.015625-0.10938 0-0.21875-0.039063-0.375-0.10938-0.46875-0.0625-0.09375-0.16406-0.14062-0.29688-0.14062-0.1875 0-0.33594 0.078125-0.4375 0.23438-0.09375 0.14844-0.14844 0.35938-0.15625 0.64062v1.5h-0.96875v-1.5938c0-0.33203-0.03125-0.54688-0.09375-0.64062-0.054687-0.09375-0.15234-0.14062-0.29688-0.14062-0.1875 0-0.33594 0.078125-0.4375 0.23438-0.10547 0.14844-0.15625 0.35938-0.15625 0.64062v1.5h-0.96875v-3.0469h0.96875v0.45312c0.125-0.17578 0.25781-0.30469 0.40625-0.39062 0.15625-0.082031 0.32812-0.125 0.51562-0.125 0.20703 0 0.39062 0.054687 0.54688 0.15625 0.16406 0.09375 0.28906 0.23438 0.375 0.42188z"/>
  </symbol>
  <symbol id="h" overflow="visible">
   <path d="m3.5312-1.8594v1.8594h-0.98438v-1.4062c0-0.26953-0.007813-0.45312-0.015625-0.54688-0.011719-0.10156-0.03125-0.17969-0.0625-0.23438-0.042969-0.0625-0.09375-0.10938-0.15625-0.14062s-0.13672-0.046875-0.21875-0.046875c-0.21094 0-0.37109 0.078125-0.48438 0.23438-0.11719 0.15625-0.17188 0.37109-0.17188 0.64062v1.5h-0.96875v-4.2188h0.96875v1.625c0.14453-0.17578 0.30078-0.30469 0.46875-0.39062 0.16406-0.082031 0.34766-0.125 0.54688-0.125 0.35156 0 0.61719 0.10938 0.79688 0.32812 0.1875 0.21094 0.28125 0.51562 0.28125 0.92188z"/>
  </symbol>
  <symbol id="u" overflow="visible">
   <path d="m2.8438-2.9531v0.75c-0.21094-0.09375-0.41406-0.16016-0.60938-0.20312-0.1875-0.039062-0.37109-0.0625-0.54688-0.0625-0.17969 0-0.3125 0.027344-0.40625 0.078125-0.09375 0.042969-0.14062 0.10938-0.14062 0.20312 0 0.085938 0.03125 0.14844 0.09375 0.1875 0.070313 0.042969 0.19531 0.070312 0.375 0.078125l0.17188 0.03125c0.5 0.0625 0.83203 0.16797 1 0.3125 0.17578 0.14844 0.26562 0.375 0.26562 0.6875 0 0.32422-0.12109 0.57031-0.35938 0.73438-0.24219 0.15625-0.59375 0.23438-1.0625 0.23438-0.21094 0-0.42188-0.015625-0.64062-0.046875-0.21094-0.03125-0.42969-0.078125-0.65625-0.14062v-0.73438c0.19531 0.09375 0.39453 0.16797 0.59375 0.21875 0.20703 0.042969 0.41406 0.0625 0.625 0.0625 0.19531 0 0.34375-0.023438 0.4375-0.078125 0.09375-0.050781 0.14062-0.12891 0.14062-0.23438 0-0.09375-0.039062-0.16016-0.10938-0.20312-0.0625-0.039063-0.19531-0.070313-0.39062-0.09375l-0.17188-0.015625c-0.42969-0.0625-0.73047-0.16406-0.90625-0.3125-0.17969-0.14453-0.26562-0.36719-0.26562-0.67188 0-0.3125 0.10938-0.54688 0.32812-0.70312 0.22656-0.15625 0.57031-0.23438 1.0312-0.23438 0.17578 0 0.36328 0.015625 0.5625 0.046875 0.19531 0.023438 0.41016 0.058594 0.64062 0.10938z"/>
  </symbol>
  <symbol id="t" overflow="visible">
   <path d="m3.3281-3.9219v0.85938c-0.21875-0.10156-0.4375-0.17969-0.65625-0.23438-0.21094-0.050781-0.40625-0.078125-0.59375-0.078125-0.25 0-0.4375 0.039062-0.5625 0.10938-0.11719 0.0625-0.17188 0.16797-0.17188 0.3125 0 0.11719 0.039062 0.20312 0.125 0.26562 0.082031 0.054688 0.22656 0.10547 0.4375 0.15625l0.45312 0.078125c0.44531 0.09375 0.76562 0.23438 0.95312 0.42188s0.28125 0.44922 0.28125 0.78125c0 0.44922-0.13672 0.78125-0.40625 1-0.26172 0.21875-0.66406 0.32812-1.2031 0.32812-0.26172 0-0.52344-0.027344-0.78125-0.078125-0.25-0.039062-0.50781-0.11328-0.76562-0.21875v-0.875c0.25781 0.13672 0.50781 0.24219 0.75 0.3125 0.23828 0.074219 0.47266 0.10938 0.70312 0.10938 0.22656 0 0.39844-0.035156 0.51562-0.10938 0.125-0.082031 0.1875-0.19531 0.1875-0.34375 0-0.125-0.042969-0.21875-0.125-0.28125-0.085938-0.070312-0.25-0.13281-0.5-0.1875l-0.40625-0.09375c-0.39844-0.082031-0.6875-0.21875-0.875-0.40625-0.1875-0.19531-0.28125-0.45703-0.28125-0.78125 0-0.40625 0.12891-0.71094 0.39062-0.92188 0.25781-0.21875 0.63281-0.32812 1.125-0.32812 0.21875 0 0.44141 0.015625 0.67188 0.046875 0.23828 0.03125 0.48438 0.085937 0.73438 0.15625z"/>
  </symbol>
  <symbol id="g" overflow="visible">
   <path d="m0.4375-1.1875v-1.8594h0.96875v0.3125 0.625 0.48438c0 0.25 0.003906 0.43359 0.015625 0.54688 0.007813 0.10547 0.03125 0.17969 0.0625 0.21875 0.039063 0.0625 0.09375 0.11719 0.15625 0.15625 0.070313 0.03125 0.14844 0.046875 0.23438 0.046875 0.19531 0 0.35156-0.078125 0.46875-0.23438 0.11328-0.15625 0.17188-0.375 0.17188-0.65625v-1.5h0.98438v3.0469h-0.98438v-0.4375c-0.14844 0.17969-0.30469 0.30859-0.46875 0.39062-0.15625 0.082031-0.33594 0.125-0.53125 0.125-0.35547 0-0.625-0.10156-0.8125-0.3125-0.17969-0.21875-0.26562-0.53516-0.26562-0.95312z"/>
  </symbol>
  <symbol id="s" overflow="visible">
   <path d="m0.46875-3.0469h0.96875v3.0469h-0.96875zm0-1.1719h0.96875v0.78125h-0.96875z"/>
  </symbol>
  <symbol id="c" overflow="visible">
   <path d="m1.9219-2.4219c-0.21875 0-0.38672 0.078125-0.5 0.23438-0.11719 0.15625-0.17188 0.38281-0.17188 0.67188 0 0.29297 0.054688 0.51562 0.17188 0.67188 0.11328 0.15625 0.28125 0.23438 0.5 0.23438 0.20703 0 0.36328-0.078125 0.46875-0.23438 0.11328-0.15625 0.17188-0.37891 0.17188-0.67188 0-0.28906-0.058594-0.51562-0.17188-0.67188-0.10547-0.15625-0.26172-0.23438-0.46875-0.23438zm0-0.6875c0.51953 0 0.92578 0.14062 1.2188 0.42188 0.28906 0.28125 0.4375 0.67188 0.4375 1.1719s-0.14844 0.89062-0.4375 1.1719c-0.29297 0.28125-0.69922 0.42188-1.2188 0.42188-0.53125 0-0.94922-0.14062-1.25-0.42188-0.29297-0.28125-0.4375-0.67188-0.4375-1.1719s0.14453-0.89062 0.4375-1.1719c0.30078-0.28125 0.71875-0.42188 1.25-0.42188z"/>
  </symbol>
  <symbol id="r" overflow="visible">
   <path d="m2.4688-4.2188v0.625h-0.53125c-0.14844 0-0.24609 0.027344-0.29688 0.078125-0.054687 0.054687-0.078125 0.14062-0.078125 0.26562v0.20312h0.82812v0.70312h-0.82812v2.3438h-0.96875v-2.3438h-0.48438v-0.70312h0.48438v-0.20312c0-0.33203 0.085938-0.57812 0.26562-0.73438 0.1875-0.15625 0.47266-0.23438 0.85938-0.23438z"/>
  </symbol>
  <symbol id="q" overflow="visible">
   <path d="m0.51562-4.0625h1.1562l1.4844 2.7812v-2.7812h0.98438v4.0625h-1.1562l-1.4844-2.7812v2.7812h-0.98438z"/>
  </symbol>
  <symbol id="p" overflow="visible">
   <path d="m3.5312-1.8594v1.8594h-0.98438v-1.4219c0-0.25781-0.007813-0.4375-0.015625-0.53125-0.011719-0.10156-0.03125-0.17969-0.0625-0.23438-0.042969-0.0625-0.09375-0.10938-0.15625-0.14062s-0.13672-0.046875-0.21875-0.046875c-0.21094 0-0.37109 0.078125-0.48438 0.23438-0.11719 0.15625-0.17188 0.37109-0.17188 0.64062v1.5h-0.96875v-3.0469h0.96875v0.45312c0.14453-0.17578 0.30078-0.30469 0.46875-0.39062 0.16406-0.082031 0.34766-0.125 0.54688-0.125 0.35156 0 0.61719 0.10938 0.79688 0.32812 0.1875 0.21094 0.28125 0.51562 0.28125 0.92188z"/>
  </symbol>
  <symbol id="o" overflow="visible">
   <path d="m0.51562-4.0625h1.7344c0.50781 0 0.89844 0.11719 1.1719 0.34375 0.28125 0.23047 0.42188 0.55859 0.42188 0.98438 0 0.42969-0.14062 0.75781-0.42188 0.98438-0.27344 0.23047-0.66406 0.34375-1.1719 0.34375h-0.6875v1.4062h-1.0469zm1.0469 0.76562v1.125h0.57812c0.19531 0 0.34766-0.046875 0.45312-0.14062 0.11328-0.09375 0.17188-0.23438 0.17188-0.42188 0-0.17578-0.058594-0.3125-0.17188-0.40625-0.10547-0.10156-0.25781-0.15625-0.45312-0.15625z"/>
  </symbol>
  <symbol id="n" overflow="visible">
   <path d="m0.46875-3.0469h0.96875v3c0 0.40625-0.10156 0.71094-0.29688 0.92188-0.1875 0.21875-0.46875 0.32812-0.84375 0.32812h-0.48438v-0.64062h0.17188c0.1875 0 0.3125-0.042969 0.375-0.125 0.070313-0.085938 0.10938-0.24609 0.10938-0.48438zm0-1.1719h0.96875v0.78125h-0.96875z"/>
  </symbol>
  <symbol id="m" overflow="visible">
   <path d="m2.9219-2.9531v0.79688c-0.125-0.09375-0.25781-0.16016-0.39062-0.20312-0.13672-0.039063-0.27734-0.0625-0.42188-0.0625-0.27344 0-0.48438 0.085937-0.64062 0.25-0.14844 0.15625-0.21875 0.375-0.21875 0.65625s0.070312 0.50781 0.21875 0.67188c0.15625 0.15625 0.36719 0.23438 0.64062 0.23438 0.15625 0 0.30078-0.019531 0.4375-0.0625 0.13281-0.050781 0.25781-0.125 0.375-0.21875v0.79688c-0.14844 0.0625-0.29688 0.10156-0.45312 0.125-0.15625 0.03125-0.32031 0.046875-0.48438 0.046875-0.54297 0-0.96875-0.14062-1.2812-0.42188s-0.46875-0.67188-0.46875-1.1719 0.15625-0.89062 0.46875-1.1719 0.73828-0.42188 1.2812-0.42188c0.16406 0 0.32031 0.015625 0.46875 0.046875 0.15625 0.023438 0.3125 0.058594 0.46875 0.10938z"/>
  </symbol>
 </defs>
 <g>
  <path d="m590.32 554.69c-0.53516-2.6914-13.434-66.418-40.645-108.93-17.77-27.758-37.012-40.605-53.992-51.941-9.4297-6.2969-17.578-11.734-24.332-18.934-10.953-11.672-15.586-32.102-17.543-47.184-0.72656-5.6094-3.8555-10.609-8.5742-13.711-2.0781-1.3672-4.3789-2.2773-6.7578-2.7578 6.0977-10.965 17.008-33.277 19.633-56.574 2.5586-22.68-2.918-77.906-6.4062-108.81-1.5547-13.785-13.602-23.84-27.469-22.887-7.1719 0.49219-13.633 3.8203-18.195 9.375-4.5664 5.5586-6.5859 12.551-5.6758 19.691 3.5898 28.309 4.4766 48.922 2.5 58.043-3.625 16.723-13.109 36.254-27.914 36.254-11.852 0-36.559-38.012-50.734-71.996-8.4453-20.242-24.383-103.77-30.84-138.74-1.2734-6.8906-5.1719-12.848-10.984-16.77-5.8125-3.9219-12.797-5.3164-19.672-3.9219-1.8867 0.38281-3.6875 0.98047-5.4023 1.7422-4.5352-11.621-16.922-18.676-29.559-16.113-6.8438 1.3906-12.738 5.3633-16.598 11.188-0.97656 1.4727-1.793 3.0234-2.4453 4.625-2.0273-1.8281-4.3789-3.3047-7.0039-4.3164-5.6719-2.1875-11.852-2.0234-17.402 0.46875-4.2812 1.9219-7.7891 5.1289-10.137 9.0586-2.0859-1.9453-4.543-3.5-7.2852-4.5586-5.6719-2.1875-11.852-2.0234-17.398 0.46875-11.039 4.9531-16.215 17.656-11.785 28.914l3.957 10.059c-2.2617 0.097656-4.543 0.51562-6.7852 1.3086-11.414 4.0352-17.793 16.34-14.531 27.996l4.2812 15.285c-4.8281 2.1719-8.8555 5.7617-11.57 10.441-3.4883 6.0156-4.375 13.016-2.4961 19.711 9.6875 34.488 27.777 95.34 40.07 115.39 14.777 24.113 61.289 62.172 74.887 73.031-0.80859 1.2148-1.4609 2.5352-1.9648 3.9297l-28.52 25.395c-14.578 12.98-18.312 34.059-9.0781 51.258l29.91 55.711c-2.9727 3.2617-4.8047 7.5859-4.8047 12.336 0 8.3008 5.5391 15.32 13.109 17.582-1.1484 2.3984-1.8125 5.0703-1.8125 7.9023 0 10.055 8.125 18.234 18.156 18.344-0.17578 1.0195-0.28516 2.0586-0.28516 3.125 0 9.7656 7.6719 17.754 17.301 18.305l12.973 24.16c0.80078 1.4922 2.3359 2.3438 3.9219 2.3438 0.71094 0 1.4297-0.17188 2.0977-0.53125 2.1641-1.1602 2.9727-3.8555 1.8125-6.0195l-11.699-21.789c5.1797-2.543 8.9883-7.4453 10.012-13.309 1.9141 0.67969 3.9688 1.0703 6.1133 1.0703 10.121 0 18.355-8.2344 18.355-18.355 0-3.8359-1.1875-7.3945-3.2031-10.344 4.3398-2.043 7.7461-5.7227 9.4219-10.254l61.938 77.852c1.5273 1.9219 4.3203 2.2422 6.2461 0.71094 1.9219-1.5273 2.2383-4.3242 0.71094-6.2461l-89.742-112.79c-5.1172-6.4375-5.2539-15.465-0.33203-21.965 17.695-23.344 38.562-43.305 62.027-59.332 24.531-16.754 52.672-29.738 83.641-38.586 2.8945-0.82812 6.0039-0.34766 8.5273 1.3086 2.5586 1.6797 4.2461 4.3906 4.6445 7.4297 2.125 16.383 7.2969 38.723 19.875 52.125 7.4531 7.9414 16.406 13.918 25.879 20.246 16.254 10.852 34.68 23.148 51.441 49.34 26.293 41.078 39.285 105.23 39.414 105.87 0.42188 2.1133 2.2773 3.5781 4.3555 3.5781 0.28906 0 0.57812-0.027344 0.87109-0.085937 2.4062-0.48438 3.9688-2.8242 3.4922-5.2305zm-402.37-534.09c3.3672-1.5117 7.1172-1.6133 10.562-0.28516 3.4414 1.3281 6.1562 3.9219 7.6328 7.3008l0.91016 2.0781c0.078124 0.55469 0.16406 1.1094 0.27734 1.6641l4.6211 22.754c-0.80469 0.085937-1.6055 0.19922-2.4062 0.36328-5.957 1.207-11.191 4.375-14.992 9.0156l-14.434-32.969c0.85156-4.3477 3.7578-8.0938 7.8281-9.9219zm-34.824 4.9688c3.3672-1.5117 7.1172-1.6094 10.562-0.28516 3.4453 1.3281 6.1562 3.9219 7.6367 7.3008l18.039 41.203c-0.92969 3.7266-1.0273 7.6445-0.23828 11.52l4.1289 20.344c-1.1211 2.4258-3.4648 7.7617-5.7734 14.699l-24-50.723c-2.4609-5.1953-6.6094-9.0586-11.496-11.234l-6.0117-15.277c-2.6875-6.8359 0.45312-14.543 7.1523-17.547zm-15.281 40.543c6.9023-2.4453 14.469 0.69922 17.602 7.3164l28.379 59.98c-1.4297 6.3594-2.4258 13.219-2.4258 19.992 0 3.5703 0.32812 8.7383 0.9375 15.023l-23.777-54.379c-4.4258-10.121-14.641-16.062-25.324-15.234l-4.332-15.469c-2.0039-7.1719 1.9219-14.738 8.9414-17.23zm20.363 175.82c-8.5703-13.98-22.816-55.223-39.09-113.16-1.2266-4.3633-0.64844-8.9258 1.6289-12.848 2.2773-3.9258 5.957-6.6953 10.359-7.8008 7.9297-1.9883 16.043 2.0039 19.312 9.4805l36.023 82.383c3.5703 31.082 12.246 63.242 24.785 96.219-18.773-16.043-43.473-38.695-53.02-54.277zm59.941 48.332c-14.613-29.551-27.859-114.3-27.859-136.86 0-11.258 3.168-23.098 6.1914-31.84l15.441 76.051c0.42969 2.1055 2.2812 3.5625 4.3516 3.5625 0.29297 0 0.58984-0.027343 0.89062-0.089843 2.4062-0.48828 3.957-2.8359 3.4727-5.2383l-22.805-112.31c-1.8945-9.3281 4.1562-18.457 13.484-20.352 0.80078-0.16406 1.6094-0.25781 2.4141-0.30859l26.199 129.05c0.42969 2.1055 2.2812 3.5625 4.3516 3.5625 0.29297 0 0.58984-0.027344 0.89062-0.089844 2.4062-0.48828 3.957-2.8359 3.4727-5.2383l-32.602-160.58c-0.91797-4.5195-0.019531-9.125 2.5273-12.969 2.5469-3.8438 6.4375-6.4648 10.957-7.3828 9.0273-1.832 17.859 3.793 20.133 12.621-1.2539 1.2461-2.3984 2.6172-3.3984 4.125-3.8242 5.7734-5.1719 12.691-3.793 19.477l26.871 132.36c-7.2656 2.4453-12.52 9.3086-12.52 17.391 0 3.2422 0.85156 6.2852 2.332 8.9297-6.9922 2.5938-12 9.3125-12 17.199 0 4.0039 1.3047 7.7031 3.4883 10.727-5.9531 3.0391-10.047 9.2148-10.047 16.348 0 4.9453 1.9766 9.4336 5.168 12.738-4.707 3.3281-7.7969 8.8008-7.7969 14.988 0 3.7969 1.1602 7.3281 3.1406 10.258-6.2617 2.9258-10.621 9.2695-10.621 16.625 0 3.6602 1.0898 7.0664 2.9414 9.9336-0.12109 0.054687-0.23828 0.11719-0.35938 0.17578-7.1016-9.5234-12.117-17.207-14.918-22.871zm18.793 132.23c-5.2227 0-9.4688-4.2461-9.4688-9.4688 0-5.2227 4.2461-9.4688 9.4688-9.4688 5.2188 0 9.4688 4.2461 9.4688 9.4688 0 5.2188-4.2461 9.4688-9.4688 9.4688zm5.7227 18.145c0 5.2188-4.2461 9.4688-9.4688 9.4688-5.2188 0-9.4688-4.2461-9.4688-9.4688 0-5.2227 4.2461-9.4688 9.4688-9.4688 5.2188 0 9.4688 4.2461 9.4688 9.4688zm-1.8633-45.77c-5.2227 0-9.4688-4.2461-9.4688-9.4688 0-5.2227 4.2461-9.4688 9.4688-9.4688 5.2188 0 9.4688 4.2461 9.4688 9.4688 0 5.2188-4.2461 9.4688-9.4688 9.4688zm0-27.824c-5.2227 0-9.4688-4.2461-9.4688-9.4688 0-5.2227 4.2461-9.4688 9.4688-9.4688 5.2188 0 9.4688 4.2461 9.4688 9.4688 0 5.2188-4.2461 9.4688-9.4688 9.4688zm0-27.824c-5.2227 0-9.4688-4.2461-9.4688-9.4688s4.2461-9.4688 9.4688-9.4688c5.2188 0 9.4688 4.2461 9.4688 9.4688 0 5.2188-4.2461 9.4688-9.4688 9.4688zm8.0391-26.73c-5.2227 0-9.4688-4.2461-9.4688-9.4688s4.2461-9.4688 9.4688-9.4688c5.2188 0 9.4688 4.2461 9.4688 9.4688 0 5.2188-4.2461 9.4688-9.4688 9.4688zm7.4805-26.883c-5.2227 0-9.4688-4.2461-9.4688-9.4688 0-5.2227 4.2461-9.4688 9.4688-9.4688 5.2188 0 9.4688 4.2461 9.4688 9.4688 0 5.2227-4.2461 9.4688-9.4688 9.4688zm2.6289-27.723c-5.2227 0-9.4688-4.2461-9.4688-9.4688s4.2461-9.4688 9.4688-9.4688c5.2188 0 9.4688 4.2461 9.4688 9.4688 0 5.2188-4.2461 9.4688-9.4688 9.4688zm6.5586-27.074c-5.2227 0-9.4688-4.2461-9.4688-9.4688 0-5.2188 4.2461-9.4688 9.4688-9.4688 5.2188 0 9.4688 4.2461 9.4688 9.4688-0.003906 5.2227-4.25 9.4688-9.4688 9.4688zm0.19531-35.594c0-5.2188 4.2461-9.4688 9.4688-9.4688s9.4688 4.2461 9.4688 9.4688c0 5.2227-4.2461 9.4688-9.4688 9.4688-5.2188-0.003907-9.4688-4.25-9.4688-9.4688zm-50.309 241.02-21.609-40.25c-7.2812-13.562-4.3359-30.18 7.1562-40.414l22.465-20.004c1.0625 3.1719 2.9688 5.957 5.4531 8.0938-3.918 3.3672-6.4141 8.3516-6.4141 13.914s2.4961 10.543 6.4141 13.914c-3.918 3.3672-6.4141 8.3516-6.4141 13.914 0 4.668 1.7656 8.918 4.6445 12.164-5.1055 3.2617-8.5039 8.9688-8.5039 15.465 0 4.6836 1.7773 8.9492 4.6758 12.199-3.8711 2.4922-6.7305 6.4062-7.8672 11.004zm4.5547 32c0-5.2188 4.2461-9.4688 9.4688-9.4688 5.2188 0 9.4688 4.2461 9.4688 9.4688 0 5.2227-4.2461 9.4688-9.4688 9.4688-5.2227 0-9.4688-4.2461-9.4688-9.4688zm20.762 34.957c-5.2188 0-9.4688-4.2461-9.4688-9.4688s4.2461-9.4688 9.4688-9.4688c5.2227 0 9.4688 4.2461 9.4688 9.4688s-4.25 9.4688-9.4688 9.4688zm17.867 21.473c-5.2188 0-9.4688-4.2461-9.4688-9.4688 0-5.2188 4.2461-9.4688 9.4688-9.4688s9.4688 4.2461 9.4688 9.4688-4.2461 9.4688-9.4688 9.4688zm24.18-14.125c-5.2227 0-9.4688-4.2461-9.4688-9.4688s4.2461-9.4688 9.4688-9.4688c5.2188 0 9.4688 4.2461 9.4688 9.4688 0 5.2188-4.25 9.4688-9.4688 9.4688zm16.84-36.414c0 5.2188-4.2461 9.4688-9.4688 9.4688s-9.4688-4.2461-9.4688-9.4688 4.2461-9.4688 9.4688-9.4688 9.4688 4.2461 9.4688 9.4688zm-20.527-61.465c-7.3828 9.7344-7.1914 23.25 0.45703 32.867l8.2773 10.406c-9.0273 1.1484-16.031 8.8594-16.031 18.195 0 3.8359 1.1875 7.3945 3.2031 10.344-5.3203 2.5039-9.2461 7.4766-10.289 13.441-1.8555-0.65625-3.8398-1.0352-5.9102-1.0586 0.17578-1.0195 0.28516-2.0586 0.28516-3.125 0-8.3008-5.5391-15.32-13.109-17.582 1.1484-2.3984 1.8125-5.0703 1.8125-7.9023 0-4.6758-1.7695-8.9336-4.6602-12.18 5.0703-3.2695 8.4375-8.957 8.4375-15.422 0-4.6836-1.7773-8.9492-4.6758-12.199 5.0586-3.2734 8.4219-8.9531 8.4219-15.414 0-4.668-1.7656-8.918-4.6445-12.164 5.1055-3.2617 8.5039-8.9688 8.5039-15.465 0-5.5625-2.4961-10.543-6.4141-13.914 3.5859-3.0859 5.9648-7.5234 6.3438-12.52 14.48 16.648 27.895 31.141 33.52 37.164-4.6797 5.3047-9.1992 10.816-13.527 16.527zm148.64-100.6c-31.23 9.0977-59.672 22.309-84.547 39.301-16.098 10.992-30.996 23.781-44.547 38.18-7.2734-7.793-25.688-27.754-43.285-48.617 2.3906-3.0977 3.8242-6.9688 3.8242-11.172 0-3.6602-1.0898-7.0664-2.9414-9.9336 6.457-2.8477 10.98-9.3008 10.98-16.797 0-3.7969-1.1602-7.3281-3.1406-10.258 6.2617-2.9258 10.621-9.2695 10.621-16.625 0-4.9453-1.9766-9.4336-5.168-12.738 4.707-3.3281 7.7969-8.8008 7.7969-14.988 0-4.0039-1.3047-7.7031-3.4883-10.727 5.9531-3.0391 10.047-9.2188 10.047-16.348 0-3.2422-0.85156-6.2852-2.332-8.9297 6.9922-2.5938 12-9.3125 12-17.199 0-9.0664-6.6094-16.594-15.262-18.074l-27.094-133.44c-0.90625-4.4609-0.019531-9.0039 2.4961-12.801 2.5117-3.793 6.3516-6.3828 10.812-7.2891 4.5156-0.91797 9.1055-0.003906 12.93 2.5781 3.8164 2.5781 6.3789 6.4883 7.2148 11.02 8.0898 43.789 22.922 120.27 31.379 140.55 5.2305 12.539 14.719 31.809 25.672 48.281 13.055 19.637 23.934 29.184 33.27 29.184 20.07 0 32.066-22.348 36.602-43.262 2.8008-12.922 0.25781-40.328-2.3711-61.047-0.59375-4.6914 0.73047-9.2812 3.7266-12.93 2.9922-3.6406 7.2305-5.8242 11.938-6.1484 9.0938-0.63281 17.004 5.9727 18.027 15.016 3.4492 30.531 8.8672 85.004 6.4062 106.82-2.9688 26.312-17.848 52.25-21.566 58.395z"/>
  <path d="m502.86 560c1.0664 0 2.1367-0.38281 2.9883-1.1562 1.8164-1.6484 1.9492-4.4609 0.30078-6.2773-46.254-50.898-91.199-110.76-137.4-183-1.3203-2.0664-4.0703-2.6719-6.1406-1.3516-2.0664 1.3203-2.6719 4.0703-1.3516 6.1406 46.473 72.664 91.719 132.91 138.31 184.19 0.88281 0.96484 2.0859 1.457 3.293 1.457z"/>
  <use x="109.59375" y="576.667969" xlink:href="#v"/>
  <use x="113.671875" y="576.667969" xlink:href="#d"/>
  <use x="116.410156" y="576.667969" xlink:href="#b"/>
  <use x="120.179687" y="576.667969" xlink:href="#l"/>
  <use x="123.929687" y="576.667969" xlink:href="#a"/>
  <use x="126.585938" y="576.667969" xlink:href="#b"/>
  <use x="130.351562" y="576.667969" xlink:href="#f"/>
  <use x="136.261719" y="576.667969" xlink:href="#k"/>
  <use x="140.238281" y="576.667969" xlink:href="#e"/>
  <use x="145.796875" y="576.667969" xlink:href="#j"/>
  <use x="150.09375" y="576.667969" xlink:href="#i"/>
  <use x="155.882812" y="576.667969" xlink:href="#b"/>
  <use x="159.652344" y="576.667969" xlink:href="#a"/>
  <use x="162.308594" y="576.667969" xlink:href="#h"/>
  <use x="166.261719" y="576.667969" xlink:href="#e"/>
  <use x="169.882812" y="576.667969" xlink:href="#u"/>
  <use x="173.191406" y="576.667969" xlink:href="#a"/>
  <use x="177.78125" y="576.667969" xlink:href="#t"/>
  <use x="181.78125" y="576.667969" xlink:href="#a"/>
  <use x="184.4375" y="576.667969" xlink:href="#g"/>
  <use x="188.390625" y="576.667969" xlink:href="#f"/>
  <use x="192.371094" y="576.667969" xlink:href="#s"/>
  <use x="194.273438" y="576.667969" xlink:href="#c"/>
  <use x="109.59375" y="582.222656" xlink:href="#r"/>
  <use x="112.011719" y="582.222656" xlink:href="#d"/>
  <use x="114.75" y="582.222656" xlink:href="#c"/>
  <use x="118.566406" y="582.222656" xlink:href="#i"/>
  <use x="126.292969" y="582.222656" xlink:href="#a"/>
  <use x="128.945312" y="582.222656" xlink:href="#h"/>
  <use x="132.902344" y="582.222656" xlink:href="#b"/>
  <use x="138.605469" y="582.222656" xlink:href="#q"/>
  <use x="143.253906" y="582.222656" xlink:href="#c"/>
  <use x="147.070312" y="582.222656" xlink:href="#g"/>
  <use x="151.023438" y="582.222656" xlink:href="#p"/>
  <use x="156.914062" y="582.222656" xlink:href="#o"/>
  <use x="160.984375" y="582.222656" xlink:href="#d"/>
  <use x="163.726562" y="582.222656" xlink:href="#c"/>
  <use x="167.542969" y="582.222656" xlink:href="#n"/>
  <use x="169.445312" y="582.222656" xlink:href="#b"/>
  <use x="173.214844" y="582.222656" xlink:href="#m"/>
  <use x="176.507812" y="582.222656" xlink:href="#a"/>
 </g>
</svg>
